<?xml version="1.0" encoding="utf-8"?>
<!-- Generator: Adobe Illustrator 23.0.2, SVG Export Plug-In . SVG Version: 6.00 Build 0)  -->
<svg version="1.1" id="レイヤー_1" xmlns="http://www.w3.org/2000/svg" xmlns:xlink="http://www.w3.org/1999/xlink" x="0px"
	 y="0px" viewBox="0 0 410 119" style="enable-background:new 0 0 410 119;" xml:space="preserve">
<style type="text/css">
	.st0{clip-path:url(#SVGID_2_);fill:#FFFFFF;}
	.st1{clip-path:url(#SVGID_4_);fill:#FFFFFF;}
	.st2{fill:#FFFFFF;}
</style>
<g>
	<g>
		<defs>
			<path id="SVGID_1_" d="M52.1,16c5.9,12.3,11.8,34.6,5.2,58.5c-5.7,20.9-31.9,33.3-51.8,3.7c-1-1.5-2.8-4.7-3.5-7.4
				c0,0,0.1,0.7,0.4,1.7c0.2,0.9,0.5,2,1,3.5c0.4,1,0.7,2,1.2,3.4c0.3,0.7,0.7,1.6,1,2.3c1.1,2.3,1.9,4.1,4.6,8.3
				c2.4,3.7,5.5,7.2,9.1,10.5c1.5,1.4,3.2,2.7,4.9,3.9c4.1,2.9,8,5.1,12.5,6.2c4.7,1.1,10,1.1,14.7-0.8c7.5-3.1,13.9-12.6,17.3-23.5
				c6.3-20.4,1.8-45-13.6-69.8C53.5,14,48.8,7,44.5,4.4C44.4,4.3,48.1,7.9,52.1,16"/>
		</defs>
		<use xlink:href="#SVGID_1_"  style="overflow:visible;fill:#FFFFFF;"/>
		<clipPath id="SVGID_2_">
			<use xlink:href="#SVGID_1_"  style="overflow:visible;"/>
		</clipPath>
		<rect x="2" y="4.3" class="st0" width="73" height="107.3"/>
	</g>
</g>
<g>
	<g>
		<defs>
			<path id="SVGID_3_" d="M48.5,3.6c0,0,4.7,3.7,9.5,9.1c25.1,27.9,23.9,54.8,21,67.4c-2.8,12-9.7,24.4-19.5,30.4
				c-1.3,0.8-4.6,2.8-9.6,3.7c0,0,0.7,0.1,2,0.2c2.4,0.2,6.9,0.4,12.4-0.4c4.8-0.7,10.2-2.1,15.9-4.8c2.3-1.1,4.7-2.4,6.9-3.9
				c4.7-3.2,9.1-6.9,13.2-12.2c1.1-1.5,2.3-3.1,3.3-4.8c0.9-1.4,1.8-3,2.6-4.6c0.5-1.1,1-2.2,1.5-3.3c0.5-1.1,0.9-2.1,1.2-3.2
				c0.3-0.7,0.5-1.4,0.7-2.2c0.3-1.2,0.7-2.4,1-3.5c0.8-3.4,1.3-7,1.5-10.2c0.5-10.1-2.1-18.6-3.4-21.8c0,0,1.3,8.1-3,15
				S95.8,65,95.8,65c8-2.1,11.4-5.3,11.4-5.3s1.9,24.6-22.8,40.5c0,0,21.5-22.3-1.8-65.8c-4.8-8.9-12.9-18.5-19.2-25
				c0,0,3-0.5,9.2,0.9c10.8,2.5,20.9,6.7,29,15.7c0,0-2.1-3.1-5.7-6.7c-4.7-4.7-12.5-10.8-23.6-14c-4-1.2-6.9-1.6-8.4-1.8
				C61.2,3.1,58.7,3,56.5,3C51.8,3,48.5,3.6,48.5,3.6"/>
		</defs>
		<use xlink:href="#SVGID_3_"  style="overflow:visible;fill:#FFFFFF;"/>
		<clipPath id="SVGID_4_">
			<use xlink:href="#SVGID_3_"  style="overflow:visible;"/>
		</clipPath>
		<rect x="48.5" y="3" class="st1" width="64.2" height="111.8"/>
	</g>
</g>
<path class="st2" d="M148.8,35.1c0-10.9-1.4-11.3-6.1-11.3v-2.6c3,0.2,7.1,0.5,10.8,0.5c3.2,0,7.2-0.2,10.2-0.5v2.6
	c-5.6,0-6.5,0.2-6.5,16.6v22.3c0,15.1,0.3,22.1,0.5,26.6c-5.3,3.9-11.4,6.5-17.1,9l-1.1-4l4.2-0.3c2.3-0.2,4.1-0.9,4.3-3.1
	c0.3-4.1,0.8-10.8,0.8-22.4L148.8,35.1L148.8,35.1z"/>
<path class="st2" d="M191.2,57.9c-3.2-0.1-6.3-0.2-9.4-0.2c-3.2,0-6.2,0.1-9.4,0.2l4.1-6c3.1,0.1,6.2,0.2,9.3,0.2s6.2-0.1,9.3-0.2
	L191.2,57.9z"/>
<path class="st2" d="M239,48.5c3.6,0.2,7.2,0.4,10.8,0.4s7.2-0.2,10.8-0.4v2.6c-4.6,0-5.5,1.7-5.5,6.9v4.3c0,6.2,0.3,9.5,1.4,10.2
	c-4.4,1.2-14,2.5-21,2.5c-19.6,0-29.3-10.9-29.3-28.1c0-14.3,8.9-26.5,28.6-26.5c9.8,0,13.2,1.4,18.5,1.4c0.9,0,1.8-0.2,2.6-0.5
	c-1.4,4.3-1.4,6.6-1.4,11.1v3.8h-2.7v-2c0-7.1-10.3-10.8-17.9-10.8c-11.4,0-18.1,8.7-18.1,21.4c0,15.7,9,27.2,24.2,27.2
	c3,0,5-0.3,6.6-0.9v-7.5c0-12.2-0.2-12.5-7.7-12.5L239,48.5L239,48.5z"/>
<path class="st2" d="M301.8,73.8c-3-0.1-5.9-0.2-8.9-0.2c-2.9,0-5.9,0.1-8.8,0.2v-2.1c4.4,0,4.9-0.2,4.9-9.6v-17
	c0-5.2-1.4-6.3-5.1-6.3v-2.1h7.7c1.7-0.2,3.4-0.6,5-1c0.2,1.3,0.4,2.7,0.4,4.1c0,1.7-0.1,2.9-0.1,3.8l0.1,0.1
	c2.9-3.7,8.4-7.7,11.9-7.7c0.7,0,1,0.5,1,2.6c0,1.3-0.4,6.2-1.9,6.2c-1.6-0.2-2.9-0.6-4.9-0.6c-2.4,0-4.1,0.6-6.6,1.7v17
	c0,8.2,0.2,8.7,5.1,8.7v2.2H301.8z"/>
<path class="st2" d="M331.1,71.7c4,0,4.4-0.7,4.4-9.3V48.8c0-8.4-0.8-9.3-5.2-9.3v-2.1c4.1-0.1,8.1-0.7,11.9-2c0.9,2.4,1,5,1,7.6
	v21.8c0,6.2,0.4,7,4.1,7v2.1c-2.7-0.1-5.4-0.1-8.1-0.1s-5.4,0.1-8.1,0.1L331.1,71.7L331.1,71.7z M332.7,27.1c1.8-1.7,4-3.5,5.6-5.3
	c1.7,1.7,3.1,3.8,5.5,5.4c-1.7,1.1-3.9,3.5-5.8,5.3C336.6,30.5,334.4,28.7,332.7,27.1"/>
<path class="st2" d="M376.9,57.9c0-4.6,0.2-9.2,0.3-13.9c2.3-0.7,4.7-1.5,8.3-1.5c6.5,0,10.5,4.1,10.5,12s-3.1,16.2-12.3,16.2
	c-1.6,0-4.1-0.2-6.9-1.4V57.9H376.9z M364.2,38.9c4.6,0,5,0.5,5,14.3v17.5c0,20.4-0.8,22.4-5.3,22.1v2.1c1.3-0.2,6.3-0.3,9.3-0.3
	s8.1,0.1,9,0.3v-2.1c-5.1,0-5.3-0.2-5.3-10.2v-9c1.3,0.2,2.6,0.1,4.6,0.1c12.8,0,22.8-8.7,22.8-22.7c0-7.2-2.9-15.2-12.8-15.2
	c-5,0-9.8,3.5-14.3,6.4c0-1,0.1-2.2,0.1-3.5c0-1.2-0.1-2.4-0.4-3.4c-3.2,1-6.5,1.5-12.7,1.5L364.2,38.9L364.2,38.9z"/>
<path class="st2" d="M206.9,94.2c1.6-0.1,1.7-0.3,1.7-6.1v-1.6c0-4.8-0.2-4.9-1.7-5.1v-0.7c0.8,0.1,1.9,0.1,2.8,0.1
	c1,0,2.1-0.1,2.8-0.1v0.7c-1.6,0.1-1.7,0.4-1.7,3.5v5.8c0,3,0.2,3.4,1.7,3.4v0.7c-1-0.1-1.9-0.1-2.8-0.1c-0.9,0-1.9,0-2.8,0.1V94.2z
	"/>
<path class="st2" d="M227.3,94.8v-0.5c-1,0-1.2-0.1-1.2-2.8v-4.6c0-1.3-0.9-2.2-2.6-2.2c-1.6,0-2.6,1.1-3.8,1.9v-2
	c-1.1,0.2-2.3,0.4-3.4,0.4v0.6c1.1,0,1.2,0.2,1.2,2.7v2.3c0,3.6-0.1,3.8-1.1,3.8V95c0.7,0,1.5,0,2.2,0s1.4,0,2.2,0v-0.6
	c-1,0-1.2-0.1-1.2-2.6c0-1.3,0.1-2.9,0.1-4.5c0.7-0.5,1.7-0.8,2.2-0.8c1.4,0,2.2,0.6,2.2,2.2v1.9c0,1.8-0.1,3.5-0.2,4.5
	c0.2,0,0.5-0.1,0.7-0.1h2.7V94.8z"/>
<path class="st2" d="M238.9,92.9c-0.7,0.4-2.9,2.2-3.6,2.2c-2,0-4.7-1.9-4.7-5.2c0-2.9,3.2-5.4,5.7-5.4c1.5,0,2,0.2,2.6,0.6
	c-0.1,0.7-0.6,1.4-1,2c-0.8-0.6-1.7-1.3-3-1.3c-1.7,0-2.5,1.1-2.5,2.8c0,2.2,2,4.4,4.2,4.4c0.8,0,1.4-0.4,2-0.8L238.9,92.9z"/>
<path class="st2" d="M244.4,88.7c0-1.6,0.7-3.3,2.1-3.3c2.7,0,3.8,3.3,3.8,5.7c0,1.3-0.4,3-2.1,3C245.6,94.1,244.4,90.8,244.4,88.7
	 M246.9,95.1c3.8,0,5.6-3,5.6-5.3c0-2.5-1.3-5.3-5.1-5.3c-3.1,0-5.2,2.7-5.2,5.3C242.2,93.6,244.8,95.1,246.9,95.1"/>
<path class="st2" d="M260.6,94.9c-0.8,0-1.6,0-2.4,0s-1.6,0-2.4,0v-0.6c1.2,0,1.3-0.1,1.3-2.6v-4.5c0-1.4-0.4-1.7-1.4-1.7v-0.6h2.1
	c0.4,0,0.9-0.2,1.4-0.3c0,0.3,0.1,0.7,0.1,1.1s0,0.8,0,1l0,0c0.8-1,2.3-2.1,3.2-2.1c0.2,0,0.3,0.1,0.3,0.7c0,0.3-0.1,1.7-0.5,1.7
	c-0.4-0.1-0.8-0.2-1.3-0.2c-0.6,0-1.1,0.2-1.8,0.4v4.6c0,2.2,0.1,2.3,1.4,2.3L260.6,94.9L260.6,94.9z"/>
<path class="st2" d="M268.8,90.6c0-1.2,0.1-2.5,0.1-3.7c0.6-0.2,1.3-0.4,2.2-0.4c1.8,0,2.8,1.1,2.8,3.2s-0.8,4.3-3.3,4.3
	c-0.4,0-1.1,0-1.8-0.4L268.8,90.6L268.8,90.6z M265.4,85.5c1.2,0,1.4,0.1,1.4,3.8V94c0,5.5-0.2,5.6-1.4,5.5v0.6
	c0.3,0,1.7-0.1,2.5-0.1s2.2,0,2.4,0.1v-0.6c-1.4,0-1.4,0-1.4-2.7v-2c0.3,0.1,0.7,0,1.2,0c3.4,0,6.1-2.3,6.1-6.1
	c0-1.9-0.8-4.1-3.4-4.1c-1.4,0-2.6,0.9-3.8,1.7c0-0.3,0-0.6,0-0.9s0-0.6-0.1-0.9c-0.9,0.3-1.8,0.4-3.4,0.4v0.6H265.4z"/>
<path class="st2" d="M281.7,88.7c0-1.6,0.7-3.3,2.1-3.3c2.6,0,3.8,3.3,3.8,5.7c0,1.3-0.4,3-2.1,3C282.9,94.1,281.7,90.8,281.7,88.7
	 M284.1,95.1c3.8,0,5.6-3,5.6-5.3c0-2.5-1.3-5.3-5.1-5.3c-3.1,0-5.2,2.7-5.2,5.3C279.4,93.6,282,95.1,284.1,95.1"/>
<path class="st2" d="M297.8,94.9c-0.8,0-1.6,0-2.4,0s-1.6,0-2.4,0v-0.6c1.2,0,1.3-0.1,1.3-2.6v-4.5c0-1.4-0.4-1.7-1.4-1.7v-0.6h2.1
	c0.4,0,0.9-0.2,1.4-0.3c0,0.3,0.1,0.7,0.1,1.1s0,0.8,0,1l0,0c0.8-1,2.3-2.1,3.2-2.1c0.2,0,0.3,0.1,0.3,0.7c0,0.3-0.1,1.7-0.5,1.7
	c-0.4-0.1-0.8-0.2-1.3-0.2c-0.6,0-1.1,0.2-1.8,0.4v4.6c0,2.2,0.1,2.3,1.4,2.3L297.8,94.9L297.8,94.9z"/>
<path class="st2" d="M309.3,90.6c0,1.6-0.2,2.7-2.3,2.7c-0.9,0-1.9-0.6-1.9-1.6c0-0.2,0-1,0.5-1.1c1.2-0.4,2.5-0.7,3.8-1.2v1.2
	H309.3z M312.6,93.6c-0.1,0-0.3,0.1-0.4,0.1c-0.5,0-0.9-0.3-0.9-2.8c0-1.4,0.1-2.7,0.1-4.4c0-1.6-0.4-1.9-2.1-1.9
	c-1.3,0-4.4,1.1-5.8,1.6c-0.1,0.7,0.1,1.9,1,1.9c1,0,1.2-1.2,1.2-2c0.5-0.1,0.9-0.2,1.4-0.2c1.8,0,2.1,0.3,2.1,2.8l-6.1,1.9
	c-0.3,0.6-0.5,1-0.5,1.8c0,2.4,2.6,2.7,2.7,2.6l3.9-2c-0.1,0.6,0.2,1.6,0.5,2c0.9-0.3,1.9-0.7,2.8-0.8L312.6,93.6z"/>
<path class="st2" d="M321.9,93.8c-1.2,0.6-2.3,1.3-3.3,1.3c-1.6,0-1.7-1.6-1.7-2.8c0-1.3,0.1-4.1,0.1-5c0-0.5,0-1,0-1.4h-1.2V85h1.2
	c0-0.8-0.1-1.4-0.1-1.9c0.8-0.2,1.7-0.4,2.5-0.9c-0.2,0.9-0.3,1.8-0.3,2.7h1.1c0.7,0,1.3-0.1,1.6-0.1c-0.1,0.4-0.3,0.7-0.3,1.1
	c-0.3,0-0.6-0.1-1-0.1h-1.4V92c0,1,0.5,1.6,1.3,1.6c0.3,0,1-0.2,1.2-0.4L321.9,93.8z"/>
<path class="st2" d="M333.6,92.6c-0.9,0.8-2.3,2.4-3.7,2.4c-3.4,0-5.2-2.1-5.2-5.3c0-2.6,1.7-5.3,5.1-5.3c2.7,0,3.6,1.6,3.6,4.1
	c-2.2,0-4.5,0.1-6.7,0.1c0,2.3,1.3,4.4,3.9,4.4c1.2,0,1.8-0.2,2.5-0.9L333.6,92.6z M326.8,88.1c1.4,0,3-0.1,4.4-0.3
	c-0.1-1.4-0.8-2.5-2.3-2.5C327.8,85.3,327,86.3,326.8,88.1"/>
<path class="st2" d="M339.2,89c0-1.7,0.9-3.6,2.9-3.6c0.8,0,1.8,0.2,2.4,0.6c0,1.1,0,2.1-0.1,3.2c0,1.1,0,2.1,0.1,3.2
	c-0.6,0.6-1.2,0.8-2.1,0.8C340.2,93.2,339.2,91.1,339.2,89 M343,80.4c1.4,0,1.4,0.2,1.4,2.6v1.8c-0.5-0.1-1.1-0.2-1.9-0.2
	c-2.9,0-5.6,1.9-5.6,5.6c0,2.5,1.7,4.8,4,4.8c1.7,0,2.4-0.8,3.6-2c0.1,0.7,0.2,1.4,0.7,2c1-0.3,2-0.8,3.1-1l-0.1-0.6
	c-0.1,0.1-0.3,0.1-0.5,0.1c-1.2,0-1.2-1.7-1.2-3.3v-3.6c0-2.3,0.1-5,0.3-7.3c-0.8,0.3-2.8,0.4-3.8,0.4V80.4z"/>
</svg>
